<svg xmlns="http://www.w3.org/2000/svg" width="24" height="24" viewBox="0 0 24 24">
<path d="M8 3.7H16A3 3 0 0 1 19 6.7V13.3A3 3 0 0 1 16 16.3H8A3 3 0 0 1 5 13.3V6.7A3 3 0 0 1 8 3.7Z" fill="none" stroke="#000" stroke-width="1.8"/>
<path d="M8.5 6.9H15.5A.8 .8 0 0 1 16.3 7.7V9.6A.8 .8 0 0 1 15.5 10.4H8.5A.8 .8 0 0 1 7.7 9.6V7.7A.8 .8 0 0 1 8.5 6.9Z" fill="none" stroke="#000" stroke-width="1.5"/>
<path d="M9.2 16.5 7.4 19.8M14.8 16.5 16.6 19.8" fill="none" stroke="#000" stroke-width="1.8" stroke-linecap="round"/>
</svg>
