<svg xmlns="http://www.w3.org/2000/svg" width="24" height="24" viewBox="0 0 24 24">
<path d="M4.4 12.9h15.2a1 1 0 0 1 1 1v6.3H3.4v-6.3a1 1 0 0 1 1-1z" fill="none" stroke="#000" stroke-width="1.8" stroke-linecap="round" stroke-linejoin="round"/>
<path d="M3.4 16.3c1.4 0 1.4 1.1 2.9 1.1s1.4-1.1 2.9-1.1 1.4 1.1 2.9 1.1 1.4-1.1 2.9-1.1 1.4 1.1 2.9 1.1 1.4-1.1 2.9-1.1" fill="none" stroke="#000" stroke-width="1.8" stroke-linecap="round" stroke-linejoin="round"/>
<path d="M12 12.9V9.7" fill="none" stroke="#000" stroke-width="1.8" stroke-linecap="round" stroke-linejoin="round"/>
<path d="M12 7.3c.66 0 1.2-.54 1.2-1.2S12 3.7 12 3.7s-1.2 1.74-1.2 2.4.54 1.2 1.2 1.2z" fill="none" stroke="#000" stroke-width="1.8" stroke-linecap="round" stroke-linejoin="round"/>
</svg>
