<svg xmlns="http://www.w3.org/2000/svg" width="24" height="24" viewBox="0 0 24 24">
<path d="M8 3.5H16A4 4 0 0 1 20 7.5V13.5A3 3 0 0 1 17 16.5H7A3 3 0 0 1 4 13.5V7.5A4 4 0 0 1 8 3.5Z" fill="none" stroke="#000" stroke-width="1.8" stroke-linejoin="round"/>
<path d="M9 6.8H15A1 1 0 0 1 16 7.8V9.8A1 1 0 0 1 15 10.8H9A1 1 0 0 1 8 9.8V7.8A1 1 0 0 1 9 6.8Z" fill="none" stroke="#000" stroke-width="1.5" stroke-linejoin="round"/>
<path d="M8.2 13.4H15.8" fill="none" stroke="#000" stroke-width="1.5" stroke-linecap="round"/>
<path d="M9 16.5 7.2 19.8M15 16.5 16.8 19.8" fill="none" stroke="#000" stroke-width="1.8" stroke-linecap="round"/>
</svg>
