<svg xmlns="http://www.w3.org/2000/svg" width="24" height="24" viewBox="0 0 24 24">
<path d="M3.4 12.2a2 2 0 0 1 4 0v1.6h9.2v-1.6a2 2 0 0 1 4 0v3.4a1.8 1.8 0 0 1-1.8 1.8H5.2a1.8 1.8 0 0 1-1.8-1.8z" fill="none" stroke="#000" stroke-width="1.8" stroke-linecap="round" stroke-linejoin="round"/>
<path d="M5.4 10.9V8.8a2.6 2.6 0 0 1 2.6-2.6h8a2.6 2.6 0 0 1 2.6 2.6v2.1" fill="none" stroke="#000" stroke-width="1.8" stroke-linecap="round" stroke-linejoin="round"/>
<path d="M5.6 19v1.4M18.4 19v1.4" fill="none" stroke="#000" stroke-width="1.8" stroke-linecap="round" stroke-linejoin="round"/>
</svg>
