<svg xmlns="http://www.w3.org/2000/svg" width="24" height="24" viewBox="0 0 24 24">
<path d="M9.7 7.4 8.3 5a.9.9 0 0 1 .8-1.4h5.8a.9.9 0 0 1 .8 1.4l-1.4 2.4" fill="none" stroke="#000" stroke-width="1.8" stroke-linecap="round" stroke-linejoin="round"/>
<path d="M9.7 7.4h4.6c3 1.9 4.9 4.7 4.9 7.6a5.3 5.3 0 0 1-5.3 5.3h-3.8a5.3 5.3 0 0 1-5.3-5.3c0-2.9 1.9-5.7 4.9-7.6z" fill="none" stroke="#000" stroke-width="1.8" stroke-linecap="round" stroke-linejoin="round"/>
<path d="M10.1 11.3l1.9 2.4 1.9-2.4M12 13.7v3.2M10.3 15h3.4" fill="none" stroke="#000" stroke-width="1.8" stroke-linecap="round" stroke-linejoin="round"/>
</svg>
